<svg width="732" height="436" viewBox="0 0 732 436" fill="none" xmlns="http://www.w3.org/2000/svg">
<g clip-path="url(#clip0_8_44)">
<path d="M79.48 306.79C76.32 307.13 72.87 307.64 69.2 308.39C53.65 311.56 53.32 322.12 53.46 324.54L53.35 324.47C51.79 326.98 50.81 329.52 50.21 331.91L49.5 299.54C49.96 298.58 50.38 297.49 50.73 296.38C51.89 299.97 53.8 303.35 55.45 303.13C57.59 302.84 58.52 296.54 58.12 292.07C60.84 295.57 65.42 299.32 67.15 298.16C68.53 297.24 67.71 293.44 66.21 289.98C69.35 291.87 72.83 293.11 73.91 291.91C75.38 290.27 71.85 284.68 68.6 281.56C72.95 281.97 78.49 281.27 78.86 279.29C79.16 277.66 75.86 275.6 72.33 274.27C75.87 273.34 79.19 271.71 79.08 270.1C78.95 268.19 74.03 266.9 69.78 266.71C72.98 264.21 75.92 260.74 75.02 259.18C74.19 257.74 70.35 258.3 66.8 259.57C68.9 256.57 70.38 253.18 69.25 252.02C67.85 250.58 62.88 253.07 59.48 255.82C60.14 251.53 59.81 246.12 57.88 245.63C56.27 245.22 53.99 248.37 52.43 251.8C51.74 248.2 50.34 244.78 48.73 244.78C46.43 244.78 44.57 251.71 44.57 256.23C44.57 256.49 44.57 256.73 44.59 256.96C44.36 256.69 44.09 256.41 43.79 256.12C40.55 252.97 34.28 249.48 32.67 251.13C31.55 252.29 33.02 255.67 35.12 258.68C31.57 257.41 27.72 256.85 26.9 258.29C25.79 260.22 30.54 265.05 34.4 267.39C34.17 267.36 33.92 267.34 33.66 267.32C29.15 267.01 22.11 268.4 21.95 270.69C21.84 272.3 25.15 273.93 28.7 274.86C25.17 276.19 21.88 278.25 22.17 279.88C22.53 281.86 28.07 282.56 32.43 282.15C29.18 285.27 25.65 290.86 27.12 292.5C28.2 293.7 31.68 292.46 34.82 290.57C33.31 294.03 32.5 297.83 33.88 298.75C35.7 299.97 40.71 295.72 43.34 292.07C43.07 296.54 44.14 302.68 46.26 302.92C47.15 303.02 48.09 302.07 48.94 300.62L46.54 335.41C45.98 339.46 49.57 342.11 49.89 343.77L50.41 367.33C49.82 365.65 49.04 363.93 47.97 362.23L47.86 362.3C48 359.88 47.67 349.32 32.12 346.15C28.45 345.4 25 344.89 21.84 344.55C18.11 344.15 16.65 349.26 20.02 350.91C24.9 353.3 29.49 356.31 31.89 359.87C38.01 368.98 46.46 363.72 47.67 362.9C49.01 365.14 49.89 367.39 50.45 369.53L50.73 382.04C50.66 382.34 50.62 382.5 50.61 382.51L50.74 382.55L51.41 412.83L57.59 412.78L55.38 381.83C55.75 380.16 56.89 374.47 55.38 368.57L53.17 344.25L50.29 334.69C50.71 331.73 51.68 328.41 53.66 325.12C54.86 325.94 63.32 331.21 69.44 322.09C71.83 318.53 76.43 315.52 81.31 313.13C84.68 311.48 83.23 306.37 79.49 306.77L79.48 306.79ZM51.25 378.43L51.13 373.13C51.36 375.13 51.35 376.94 51.25 378.43Z" fill="#F2F2F2"/>
<path d="M0 414.29C0 414.95 0.53 415.48 1.19 415.48H730.48C731.14 415.48 731.67 414.95 731.67 414.29C731.67 413.63 731.14 413.1 730.48 413.1H1.19C0.53 413.1 0 413.63 0 414.29Z" fill="#3F3D56"/>
<path d="M442.58 415.34C472.403 415.34 496.58 391.163 496.58 361.34C496.58 331.517 472.403 307.34 442.58 307.34C412.757 307.34 388.58 331.517 388.58 361.34C388.58 391.163 412.757 415.34 442.58 415.34Z" fill="#3F3D56"/>
<path d="M442.58 397.34C462.462 397.34 478.58 381.222 478.58 361.34C478.58 341.458 462.462 325.34 442.58 325.34C422.698 325.34 406.58 341.458 406.58 361.34C406.58 381.222 422.698 397.34 442.58 397.34Z" fill="white"/>
<path d="M442.58 381.84C453.902 381.84 463.08 372.662 463.08 361.34C463.08 350.018 453.902 340.84 442.58 340.84C431.258 340.84 422.08 350.018 422.08 361.34C422.08 372.662 431.258 381.84 442.58 381.84Z" fill="#3F3D56"/>
<path d="M130.58 415.34C160.403 415.34 184.58 391.163 184.58 361.34C184.58 331.517 160.403 307.34 130.58 307.34C100.757 307.34 76.5801 331.517 76.5801 361.34C76.5801 391.163 100.757 415.34 130.58 415.34Z" fill="#3F3D56"/>
<path d="M130.58 397.34C150.462 397.34 166.58 381.222 166.58 361.34C166.58 341.458 150.462 325.34 130.58 325.34C110.698 325.34 94.5801 341.458 94.5801 361.34C94.5801 381.222 110.698 397.34 130.58 397.34Z" fill="white"/>
<path d="M516.45 335.66C509.42 317.93 484.84 263.76 441.06 245.83C440.72 245.69 440.37 245.6 440.01 245.55L299.6 225.44C297.29 225.11 295.13 226.69 294.76 229L292.3 244.2C292.13 245.24 292.35 246.31 292.92 247.2C300.05 258.26 345.75 333.35 272.57 333.35C199.39 333.35 179.22 280.98 176.02 271.73C175.72 270.86 175.71 269.92 175.98 269.04L198.16 198.79C198.55 197.54 198.34 196.26 197.7 195.24L207.45 177.13L225.31 187.24L234.56 187.35L266.13 203.85L272.56 193.35L207.45 160.87C207.45 160.87 207.56 153.35 186.56 147.35L153.56 132.35L149.56 137.35L159.56 145.35L160.56 151.35L167.56 153.35L181.56 180.35L177.56 188.09L182.42 190.46L181.03 190.14C179.02 189.68 176.97 190.72 176.15 192.61L154.09 243.17C153.75 243.94 153.19 244.6 152.48 245.06L144.62 250.13C143.89 250.6 143.31 251.29 142.98 252.1L134 273.87C133.72 274.55 133.64 275.26 133.71 275.95C122.52 278.07 89.6301 287.23 71.5601 323.36L92.5601 340.36C92.5601 340.36 125.48 319.06 179.88 341.24C189.34 355.96 203.13 368.17 223.05 369.32C275.56 372.36 362.56 375.36 372.56 363.36C379.88 354.57 384.97 349.09 387.18 346.78C387.96 345.97 389.02 345.5 390.14 345.46L512.59 341.55C515.56 341.46 517.53 338.44 516.44 335.68L516.45 335.66Z" fill="#6366F1"/>
<path d="M178.58 178.34C187.417 178.34 194.58 171.177 194.58 162.34C194.58 153.503 187.417 146.34 178.58 146.34C169.744 146.34 162.58 153.503 162.58 162.34C162.58 171.177 169.744 178.34 178.58 178.34Z" fill="#3F3D56"/>
<path d="M434.81 245.9C434.62 245.9 434.43 245.9 434.24 245.89L300.46 240.71C294.54 240.48 289.47 236.71 287.54 231.11L285.71 225.78C284.22 221.44 284.87 216.78 287.49 213.01C290.12 209.24 294.26 207.02 298.85 206.91L437.07 203.73C441.35 203.63 445.47 205.46 448.26 208.76C451.05 212.06 452.19 216.38 451.38 220.63L448.77 234.31C447.48 241.1 441.65 245.89 434.8 245.89L434.81 245.9Z" fill="#3F3D56"/>
<path d="M130.58 381.84C141.902 381.84 151.08 372.662 151.08 361.34C151.08 350.018 141.902 340.84 130.58 340.84C119.258 340.84 110.08 350.018 110.08 361.34C110.08 372.662 119.258 381.84 130.58 381.84Z" fill="#3F3D56"/>
<path d="M488.56 302.98C485.36 302.98 482.31 301.27 480.68 298.32L470.55 279.98C468.94 277.07 469.04 273.66 470.8 270.85C472.56 268.03 475.6 266.45 478.9 266.63L497.29 267.57C500.71 267.75 503.79 269.9 505.13 273.06L510.5 285.76C511.48 288.09 511.46 290.63 510.43 292.94C509.4 295.24 507.52 296.97 505.14 297.79L491.52 302.49C490.55 302.83 489.55 302.99 488.57 302.99L488.56 302.98Z" fill="#3F3D56"/>
<path d="M256.01 424.87C255.86 424.87 255.7 424.87 255.55 424.84L251.47 424.39C250.14 424.24 248.98 423.49 248.3 422.33C247.62 421.17 247.53 419.8 248.05 418.56L269.29 368.12C269.87 366.74 271.16 365.76 272.65 365.57C274.1 365.39 275.51 365.96 276.44 367.09C277.36 368.22 277.64 369.72 277.17 371.1L260.02 421.99C259.44 423.71 257.8 424.86 256.02 424.86L256.01 424.87Z" fill="#3F3D56"/>
<path d="M366.28 72.88C366.28 72.88 358.51 57.34 360.06 43.36L334.2 56.76L335.2 82.2L366.28 72.88Z" fill="#A0616A"/>
<path d="M350.23 63.94C363.115 63.94 373.56 53.4948 373.56 40.61C373.56 27.7252 363.115 17.28 350.23 17.28C337.345 17.28 326.9 27.7252 326.9 40.61C326.9 53.4948 337.345 63.94 350.23 63.94Z" fill="#A0616A"/>
<path d="M374.06 406.93H359.82L353.05 352.02H374.06V406.93Z" fill="#A0616A"/>
<path d="M325.29 406.6C324.85 407.35 324.61 409.76 324.61 410.62C324.61 413.29 326.77 415.45 329.44 415.45H373.52C375.34 415.45 376.82 413.97 376.82 412.15V410.31C376.82 410.31 379 404.79 374.51 398C374.51 398 368.93 403.32 360.59 394.99L358.13 390.54L340.33 403.56L330.46 404.77C328.3 405.04 326.39 404.73 325.28 406.6H325.29Z" fill="#2F2E41"/>
<path d="M332.09 72.88L366.28 68.22L392.7 80.65L394.25 176.99C394.25 176.99 329.27 184.76 319.03 174.66C308.79 164.56 316.56 83.76 316.56 83.76L332.1 72.88H332.09Z" fill="#E6E6E6"/>
<path d="M344.39 46.55H338.12C338.12 46.55 332.68 39.85 333.41 43.93C334.14 48.01 331.21 52.4 331.21 52.4L326.82 50.94C326.82 50.94 318.04 14.01 344.39 11.98C370.74 9.95002 376.6 30.45 376.6 30.45C376.6 30.45 375.14 40.7 372.21 37.77C369.28 34.84 353.18 33.38 353.18 33.38L344.4 46.56L344.39 46.55Z" fill="#2F2E41"/>
<path d="M327.8 394.59L314.11 398.45L292.67 347.46L312.89 341.75L327.8 394.59Z" fill="#A0616A"/>
<path d="M280.78 407.53C280.56 408.37 280.99 410.75 281.22 411.59C281.94 414.16 284.61 415.65 287.18 414.93L329.6 402.95C331.35 402.46 332.37 400.63 331.88 398.88L331.38 397.11C331.38 397.11 331.98 391.21 325.81 385.89C325.81 385.89 321.89 392.53 311.6 386.77L308.02 383.15L294.43 400.51L285.27 404.36C283.27 405.2 281.34 405.43 280.78 407.53Z" fill="#2F2E41"/>
<path d="M389.58 167.67L394.24 181.77V230.22L380.25 376.46H352.93L349.85 272.07L352.28 220.51L300.17 299.35L323.07 355.66L297.86 372.47C297.86 372.47 260.16 286.56 265.8 278.23C271.44 269.91 321.96 171.64 321.96 171.64C321.96 171.64 389.56 169.23 389.56 167.68L389.58 167.67Z" fill="#2F2E41"/>
<path d="M403.57 111.73L411.08 124.03C411.08 124.03 421.7 165.77 411.08 165.94C400.46 166.11 379.02 144.67 379.02 144.67L381.82 133.48L389.59 136.59L388.04 111.73H403.58H403.57Z" fill="#A0616A"/>
<path d="M380.26 80.46C380.26 80.46 405.12 76.08 407.45 92.35C409.78 108.62 411.08 124.04 411.08 124.04L384.14 126.27L380.26 80.46Z" fill="#E6E6E6"/>
<path d="M385.66 143.308C387.909 140.15 384.616 133.946 378.305 129.451C371.994 124.956 365.054 123.871 362.805 127.029C360.556 130.187 363.849 136.391 370.16 140.887C376.471 145.382 383.411 146.466 385.66 143.308Z" fill="#A0616A"/>
<path d="M590.48 306.79C587.32 307.13 583.87 307.64 580.2 308.39C564.65 311.56 564.32 322.12 564.46 324.54L564.35 324.47C562.79 326.98 561.81 329.52 561.21 331.91L560.5 299.54C560.96 298.58 561.38 297.49 561.73 296.38C562.89 299.97 564.8 303.35 566.45 303.13C568.59 302.84 569.52 296.54 569.12 292.07C571.84 295.57 576.42 299.32 578.15 298.16C579.53 297.24 578.71 293.44 577.21 289.98C580.35 291.87 583.83 293.11 584.91 291.91C586.38 290.27 582.85 284.68 579.6 281.56C583.95 281.97 589.49 281.27 589.86 279.29C590.16 277.66 586.86 275.6 583.33 274.27C586.87 273.34 590.19 271.71 590.08 270.1C589.95 268.19 585.03 266.9 580.78 266.71C583.98 264.21 586.92 260.74 586.02 259.18C585.19 257.74 581.35 258.3 577.8 259.57C579.9 256.57 581.38 253.18 580.25 252.02C578.85 250.58 573.88 253.07 570.48 255.82C571.14 251.53 570.81 246.12 568.88 245.63C567.27 245.22 564.99 248.37 563.43 251.8C562.74 248.2 561.34 244.78 559.73 244.78C557.43 244.78 555.57 251.71 555.57 256.23C555.57 256.49 555.57 256.73 555.59 256.96C555.36 256.69 555.09 256.41 554.79 256.12C551.55 252.97 545.28 249.48 543.67 251.13C542.55 252.29 544.02 255.67 546.12 258.68C542.57 257.41 538.72 256.85 537.9 258.29C536.79 260.22 541.54 265.05 545.4 267.39C545.17 267.36 544.92 267.34 544.66 267.32C540.15 267.01 533.11 268.4 532.95 270.69C532.84 272.3 536.15 273.93 539.7 274.86C536.17 276.19 532.88 278.25 533.17 279.88C533.53 281.86 539.07 282.56 543.43 282.15C540.18 285.27 536.65 290.86 538.12 292.5C539.2 293.7 542.68 292.46 545.82 290.57C544.31 294.03 543.5 297.83 544.88 298.75C546.7 299.97 551.71 295.72 554.34 292.07C554.07 296.54 555.14 302.68 557.26 302.92C558.15 303.02 559.09 302.07 559.94 300.62L557.54 335.41C556.98 339.46 560.57 342.11 560.89 343.77L561.41 367.33C560.82 365.65 560.04 363.93 558.97 362.23L558.86 362.3C559 359.88 558.67 349.32 543.12 346.15C539.45 345.4 536 344.89 532.84 344.55C529.11 344.15 527.65 349.26 531.02 350.91C535.9 353.3 540.49 356.31 542.89 359.87C549.01 368.98 557.46 363.72 558.67 362.9C560.01 365.14 560.89 367.39 561.45 369.53L561.73 382.04C561.66 382.34 561.62 382.5 561.61 382.51L561.74 382.55L562.41 412.83L568.59 412.78L566.38 381.83C566.75 380.16 567.89 374.47 566.38 368.57L564.17 344.25L561.29 334.69C561.71 331.73 562.68 328.41 564.66 325.12C565.86 325.94 574.32 331.21 580.44 322.09C582.83 318.53 587.43 315.52 592.31 313.13C595.68 311.48 594.23 306.37 590.49 306.77L590.48 306.79ZM562.25 378.43L562.13 373.13C562.36 375.13 562.35 376.94 562.25 378.43Z" fill="#F2F2F2"/>
<path d="M518.51 409.07L529.26 406.75L525.41 364.21L509.56 367.63L518.51 409.07Z" fill="#A0616A"/>
<path d="M555.27 400.88C555.73 401.37 556.3 403.15 556.44 403.81C556.88 405.82 555.6 407.81 553.58 408.24L520.31 415.43C518.94 415.73 517.58 414.85 517.28 413.48L516.98 412.09C516.98 412.09 514.43 408.28 516.71 402.42C516.71 402.42 521.79 405.53 526.72 397.87L527.85 394.11L543.41 401.03L551.05 400.34C552.72 400.19 554.12 399.64 555.26 400.88H555.27Z" fill="#2F2E41"/>
<path d="M537.73 405.82L546.69 399.46L526.42 361.86L513.19 371.24L537.73 405.82Z" fill="#A0616A"/>
<path d="M568.3 383.82C568.91 384.09 570.14 385.5 570.52 386.05C571.71 387.73 571.32 390.06 569.64 391.25L541.88 410.95C540.73 411.76 539.15 411.49 538.33 410.35L537.51 409.19C537.51 409.19 533.67 406.69 533.46 400.4C533.46 400.4 539.35 401.26 540.88 392.28L540.44 388.38L557.47 388.62L564.23 384.98C565.71 384.18 566.78 383.13 568.31 383.82H568.3Z" fill="#2F2E41"/>
<path d="M408.6 195.47C408.6 195.47 391.89 218.19 425.31 243.74L493.56 221.93L469.18 171.09L447.59 159.25L408.59 195.46L408.6 195.47Z" fill="#2F2E41"/>
<path d="M493.57 221.94L520.03 273.47L536.75 380.73L515.86 382.12L494.96 280.44L458.05 225.42L483.82 213.58" fill="#2F2E41"/>
<path d="M425.32 227.56V243.75L472.68 295.76C472.68 295.76 472.68 334.76 490.79 352.87L511.68 384.91L529.79 375.16L503.33 281.84L455.97 220.55L425.33 227.56H425.32Z" fill="#2F2E41"/>
<path d="M458.97 67.07L450.05 101.08L416.04 94.39C416.04 94.39 439.77 69.92 436.43 58.77L458.98 67.07H458.97Z" fill="#A0616A"/>
<path d="M432.98 72.2L453.87 81.95C453.87 81.95 464.62 88.52 464.82 92.9C465.02 97.28 463.62 118.17 463.62 118.17C463.62 118.17 471.98 126.53 466.41 143.24L469.2 171.1L406.52 204.53L412.09 146.03L409.3 91.71L432.98 72.21V72.2Z" fill="#3F3D56"/>
<path d="M414.23 230.72C416.68 236.33 421.56 239.62 425.13 238.06C428.7 236.5 429.61 230.69 427.17 225.08C426.22 222.82 424.75 220.83 422.87 219.26L412.2 195.61L401.21 200.85L412.89 223.61C412.76 226.05 413.22 228.49 414.23 230.72Z" fill="#A0616A"/>
<path d="M425.32 95.19C425.32 95.19 410 85.44 404.43 96.58C398.86 107.72 386.32 164.83 386.32 164.83L404.43 219.15L421.14 212.19L406.51 153.73L425.31 95.19H425.32Z" fill="#3F3D56"/>
<path d="M503.85 221.95C508.19 226.27 513.94 227.53 516.69 224.76C519.44 221.99 518.14 216.26 513.8 211.94C512.09 210.19 509.98 208.88 507.66 208.11L489.03 190.05L480.74 198.97L499.98 215.82C500.76 218.14 502.09 220.24 503.85 221.94V221.95Z" fill="#A0616A"/>
<path d="M464.23 91.86C464.23 91.86 437.52 90.77 436.44 103.18C435.37 115.59 453.63 170.97 453.63 170.97L490.48 214.8L503.45 202.17L468.32 153.21L464.24 91.86H464.23Z" fill="#3F3D56"/>
<path d="M386.02 192.42L363.71 124.69C345.67 108.8 326.1 147.07 273.57 125.37L290.09 201.98C329.81 180.51 363.99 172.1 386.02 192.42Z" fill="white"/>
<path d="M290.09 203.98C289.95 203.98 289.8 203.95 289.67 203.89C289.38 203.76 289.18 203.5 289.11 203.19L272.59 126.58C272.51 126.22 272.64 125.84 272.93 125.6C273.22 125.36 273.61 125.3 273.95 125.44C303.79 137.76 323.05 130.43 337.12 125.07C347.81 121 356.25 117.78 364.37 124.93C364.5 125.05 364.6 125.2 364.66 125.37L386.97 193.1C387.11 193.53 386.94 194.01 386.56 194.25C386.18 194.5 385.67 194.45 385.34 194.14C365.98 176.28 335.86 179.36 290.57 203.85C290.42 203.93 290.26 203.97 290.09 203.97V203.98ZM274.94 128L290.78 201.47C334.24 178.2 364.01 174.61 383.94 190.34L362.83 126.27C355.68 120.15 348.17 123.01 337.82 126.95C323.72 132.32 304.51 139.64 274.94 128.01V128Z" fill="#3F3D56"/>
<path d="M308.17 92.42L294.05 95.34C294.05 95.34 256.31 116.11 263.45 123.98C270.58 131.85 300.89 132.86 300.89 132.86L307.15 123.17L299.57 119.62L318.79 103.77L308.17 92.42Z" fill="#A0616A"/>
<path d="M346.93 88.07C346.93 88.07 333.14 66.92 319.67 76.34C306.2 85.76 294.06 95.34 294.06 95.34L310.84 116.53L346.94 88.07H346.93Z" fill="#E6E6E6"/>
<path d="M324.845 132.64C325.614 128.84 320.081 124.514 312.487 122.977C304.892 121.44 298.112 123.275 297.343 127.075C296.574 130.875 302.107 135.201 309.702 136.738C317.296 138.275 324.076 136.44 324.845 132.64Z" fill="#A0616A"/>
<path d="M585.63 421.94C590.291 421.94 594.07 418.161 594.07 413.5C594.07 408.839 590.291 405.06 585.63 405.06C580.969 405.06 577.19 408.839 577.19 413.5C577.19 418.161 580.969 421.94 585.63 421.94Z" fill="#3F3D56"/>
<path d="M596.88 435.03C601.541 435.03 605.32 431.251 605.32 426.59C605.32 421.929 601.541 418.15 596.88 418.15C592.219 418.15 588.44 421.929 588.44 426.59C588.44 431.251 592.219 435.03 596.88 435.03Z" fill="#3F3D56"/>
<path d="M681.26 435.03C685.921 435.03 689.7 431.251 689.7 426.59C689.7 421.929 685.921 418.15 681.26 418.15C676.599 418.15 672.82 421.929 672.82 426.59C672.82 431.251 676.599 435.03 681.26 435.03Z" fill="#3F3D56"/>
<path d="M609.24 300.29V208.64C609.24 198.38 617.82 195.84 628.08 195.84C633.11 195.84 635.55 195.26 639.08 198.84C642.61 202.42 646.53 203.91 646.45 208.94L644.97 298.87L609.23 300.28L609.24 300.29ZM629.08 201.85C619.92 201.85 611.24 199.49 611.24 208.65V298.22L643.01 296.96L644.46 208.92C644.53 204.43 637.23 205.05 634.09 201.85C630.94 198.65 633.58 201.85 629.09 201.85H629.08Z" fill="#3F3D56"/>
<path d="M584.12 299.18L582.84 399.31C582.82 400.6 583.13 401.87 583.73 403.01L593.19 420.88C594.58 423.51 597.36 425.1 600.33 424.97L683.39 421.31C687.64 421.12 690.93 417.52 690.74 413.27L685.53 298.94C685.34 294.83 681.96 291.59 677.84 291.59H591.81C587.6 291.59 584.17 294.98 584.11 299.19L584.12 299.18Z" fill="#E6E6E6"/>
<path d="M616.86 344.37L614.86 344.27L615.6 329.45C616 321.47 622.57 315.07 630.56 314.88L665.93 314.06C673.07 313.94 678.99 319.35 679.38 326.49L680.13 340.04L678.13 340.15L677.38 326.6C677.04 320.55 671.99 315.91 665.97 316.06L630.6 316.88C623.65 317.04 617.94 322.61 617.59 329.55L616.85 344.37H616.86Z" fill="#3F3D56"/>
<path d="M615.45 416.15L613.46 415.95L617.77 373.89C618.57 366.11 625.06 359.98 632.87 359.63L667.37 358.08C671.72 357.88 675.85 359.42 679.01 362.41C682.17 365.4 683.93 369.44 683.98 373.79L684.37 410.41L682.37 410.43L681.98 373.81C681.94 370.01 680.4 366.48 677.64 363.86C674.88 361.24 671.25 359.9 667.47 360.07L632.97 361.62C626.14 361.93 620.47 367.28 619.77 374.08L615.46 416.14L615.45 416.15Z" fill="#3F3D56"/>
<path d="M599.99 413.24L597.99 413.21L599.25 317.09C599.34 310.52 604.55 305.22 611.12 305.02L679.12 303.02L679.18 305.02L611.18 307.02C605.68 307.18 601.32 311.61 601.25 317.11L599.99 413.23V413.24Z" fill="#3F3D56"/>
<path d="M600.17 399.55H598.78V312.01C598.78 309.24 596.53 306.98 593.75 306.98H585.98V304.98H593.75C597.42 304.98 600.44 307.81 600.75 311.39C600.77 311.59 600.78 311.8 600.78 312.01V353.46L600.17 399.55Z" fill="#3F3D56"/>
<path d="M473.49 48.89C473.49 61.71 463.1 72.1 450.28 72.1C437.46 72.1 427.07 61.71 427.07 48.89C427.07 36.07 437.46 25.68 450.28 25.68C463.1 25.68 473.49 36.07 473.49 48.89Z" fill="#A0616A"/>
<path d="M448.43 17.69C449.1 18.08 450 17.49 450.22 16.74C450.44 15.99 450.18 15.2 449.94 14.46C449.52 13.22 449.11 11.99 448.69 10.75C447.8 8.11999 446.86 5.39999 444.94 3.39999C442.04 0.379994 437.42 -0.390006 433.27 0.169994C427.94 0.889994 422.68 3.76999 420.2 8.54999C417.72 13.33 418.78 19.99 423.26 22.97C416.87 30.29 414.65 38.45 415 48.15C415.35 57.86 425.93 66.79 432.83 73.63C434.37 72.7 435.77 68.32 434.92 66.73C434.07 65.14 435.29 63.3 434.24 61.83C433.19 60.37 432.31 62.7 433.37 61.24C434.04 60.32 431.43 58.21 432.42 57.66C437.23 55 438.83 49 441.85 44.41C445.5 38.87 451.73 35.12 458.34 34.5C461.98 34.16 465.82 34.78 468.8 36.89C471.78 39 473.71 42.77 473.02 46.36C474.81 44.54 475.7 41.88 475.37 39.35C475.03 36.82 473.48 34.48 471.27 33.19C472.61 28.76 471.46 23.66 468.35 20.24C465.24 16.81 452.63 17.4 448.09 18.3L448.44 17.7L448.43 17.69Z" fill="#2F2E41"/>
<path d="M447.73 34.63C441.72 35.28 437.38 40.49 433.71 45.3C431.6 48.07 429.38 51.13 429.44 54.62C429.49 58.14 431.85 61.17 432.98 64.5C434.82 69.96 433.03 76.45 428.65 80.19C432.98 81.01 437.66 77.77 438.4 73.42C439.27 68.37 435.44 63.49 435.89 58.38C436.29 53.88 439.84 50.42 442.85 47.05C445.87 43.68 448.7 39.22 447.31 34.92L447.73 34.63Z" fill="#2F2E41"/>
</g>
<defs>
<clipPath id="clip0_8_44">
<rect width="731.67" height="435.03" fill="white"/>
</clipPath>
</defs>
</svg>
